#!OML:ASF H:\Dans Jumps\Project 1\Capture day 1\Session 1\subject.ASF
:FULLY-SPECIFIED
:DEGREES
361
root 0.44519 16.8995 -2.67524 8.44782 0.255689 -1.36359
lowerback 5.2574 -0.885932 -0.826448
upperback 6.11392 -1.25616 2.41556
thorax 3.44089 -0.718427 2.9864
lowerneck -13.1524 0.682121 -0.529105
upperneck 31.5318 1.43098 -1.01542
head 12.6528 0.430181 -0.0913728
rclavicle -1.11319e-014 1.43125e-014
rhumerus -18.782 -14.811 -82.3913
rradius 22.5611
rwrist 33.3477
rhand -21.4822 -24.4228
rfingers 7.12502
rthumb 4.90879 -54.346
lclavicle -1.11319e-014 1.43125e-014
lhumerus -15.4996 -5.78111 91.1095
lradius 15.4899
lwrist 3.24049
lhand -28.1119 -7.21153
lfingers 7.12502
lthumb -1.494 22.763
rfemur -30.0045 -3.83937 20.4372
rtibia 46.0685
rfoot -20.5309 -10.0136
rtoes 5.08707
lfemur -31.409 6.7746 -17.7757
ltibia 43.2267
lfoot -19.653 0.442888
ltoes -4.42013
362
root 0.447823 16.9003 -2.67561 8.43561 0.275766 -1.3795
lowerback 5.24859 -0.87961 -0.821128
upperback 6.11953 -1.24756 2.40902
thorax 3.45086 -0.713881 2.97627
lowerneck -13.1468 0.673729 -0.53829
upperneck 31.5619 1.42163 -1.01385
head 12.6639 0.425052 -0.0905495
rclavicle -4.57205e-015 1.86858e-014
rhumerus -18.843 -14.877 -82.4038
rradius 22.5275
rwrist 33.3973
rhand -21.4863 -24.4809
rfingers 7.12502
rthumb 4.90484 -54.4041
lclavicle -4.57205e-015 1.86858e-014
lhumerus -15.5221 -5.65563 91.0626
lradius 15.5341
lwrist 3.27236
lhand -28.1425 -7.27189
lfingers 7.12502
lthumb -1.52357 22.7024
rfemur -29.9765 -3.83923 20.4433
rtibia 46.0439
rfoot -20.5199 -10.0283
rtoes 5.12873
lfemur -31.3936 6.77821 -17.7682
ltibia 43.2171
lfoot -19.6613 0.46818
ltoes -4.46216
363
root 0.450477 16.9009 -2.67613 8.42331 0.297506 -1.3968
lowerback 5.23959 -0.875465 -0.815305
upperback 6.12417 -1.24187 2.40404
thorax 3.46013 -0.71079 2.96753
lowerneck -13.1394 0.66645 -0.544285
upperneck 31.5897 1.41342 -1.01387
head 12.6738 0.420607 -0.0907386
rclavicle 1.64991e-014 -2.82274e-014
rhumerus -18.9047 -14.9413 -82.4147
rradius 22.497
rwrist 33.4462
rhand -21.4785 -24.5416
rfingers 7.12502
rthumb 4.91229 -54.4646
lclavicle 1.64991e-014 -2.82274e-014
lhumerus -15.5492 -5.55616 91.0218
lradius 15.5971
lwrist 3.35806
lhand -28.1705 -7.33094
lfingers 7.12502
lthumb -1.55063 22.6432
rfemur -29.9491 -3.84311 20.4513
rtibia 46.02
rfoot -20.5105 -10.0404
rtoes 5.16756
lfemur -31.3813 6.78206 -17.7599
ltibia 43.2123
lfoot -19.6683 0.491661
ltoes -4.48527
364
root 0.453174 16.9013 -2.67685 8.4133 0.319129 -1.4252
lowerback 5.22783 -0.873519 -0.799802
upperback 6.12915 -1.239 2.40407
thorax 3.47135 -0.70887 2.95857
lowerneck -13.1317 0.661806 -0.553285
upperneck 31.6118 1.40953 -1.01337
head 12.6813 0.417803 -0.0895789
rclavicle 5.96354e-016 -2.18663e-014
rhumerus -18.9581 -15.0066 -82.4234
rradius 22.4645
rwrist 33.5035
rhand -21.4684 -24.5928
rfingers 7.12502
rthumb 4.9221 -54.5157
lclavicle 5.96354e-016 -2.18663e-014
lhumerus -15.5741 -5.47298 90.9871
lradius 15.6701
lwrist 3.47478
lhand -28.2003 -7.38871
lfingers 7.12502
lthumb -1.5794 22.5852
rfemur -29.9256 -3.84657 20.472
rtibia 45.9966
rfoot -20.5016 -10.0531
rtoes 5.19693
lfemur -31.3759 6.78817 -17.7403
ltibia 43.2132
lfoot -19.6734 0.523899
ltoes -4.51434
365
root 0.455876 16.9016 -2.67764 8.40302 0.341747 -1.45437
lowerback 5.21511 -0.873524 -0.784329
upperback 6.13611 -1.23881 2.40589
thorax 3.48542 -0.708382 2.9515
lowerneck -13.1369 0.661061 -0.554656
upperneck 31.6367 1.41243 -1.02223
head 12.6929 0.417591 -0.0923125
rclavicle -1.93815e-014 9.54166e-015
rhumerus -19.0042 -15.0594 -82.4337
rradius 22.4376
rwrist 33.5456
rhand -21.4484 -24.6407
rfingers 7.12502
rthumb 4.94142 -54.5631
lclavicle -1.93815e-014 9.54166e-015
lhumerus -15.5917 -5.41477 90.9585
lradius 15.7501
lwrist 3.62843
lhand -28.2272 -7.43967
lfingers 7.12502
lthumb -1.60533 22.534
rfemur -29.9033 -3.85416 20.4944
rtibia 45.9751
rfoot -20.4949 -10.0639
rtoes 5.21704
lfemur -31.3727 6.79231 -17.7198
ltibia 43.2184
lfoot -19.6778 0.574326
ltoes -4.5692
366
root 0.458687 16.9016 -2.67839 8.39098 0.361876 -1.4831
lowerback 5.20285 -0.874789 -0.769429
upperback 6.14513 -1.2404 2.40899
thorax 3.50153 -0.708872 2.94613
lowerneck -13.152 0.66423 -0.551483
upperneck 31.6634 1.42259 -1.03934
head 12.7074 0.419965 -0.0979239
rclavicle -2.98177e-015 -1.27222e-014
rhumerus -19.0405 -15.0986 -82.4457
rradius 22.4136
rwrist 33.5726
rhand -21.4191 -24.6901
rfingers 7.12502
rthumb 4.9697 -54.6118
lclavicle -2.98177e-015 -1.27222e-014
lhumerus -15.6004 -5.37169 90.9357
lradius 15.8292
lwrist 3.79278
lhand -28.2589 -7.47931
lfingers 7.12502
lthumb -1.63598 22.4942
rfemur -29.8806 -3.86683 20.5166
rtibia 45.9563
rfoot -20.4901 -10.0705
rtoes 5.22285
lfemur -31.3671 6.79545 -17.6997
ltibia 43.2267
lfoot -19.683 0.652501
ltoes -4.65081
367
root 0.46159 16.9015 -2.67918 8.37845 0.379195 -1.50433
lowerback 5.19209 -0.876428 -0.760261
upperback 6.15492 -1.24257 2.40959
thorax 3.51774 -0.709835 2.94141
lowerneck -13.1747 0.670003 -0.54379
upperneck 31.6926 1.43655 -1.05994
head 12.7248 0.424028 -0.10509
rclavicle -2.98177e-015 -2.38542e-015
rhumerus -19.0687 -15.1354 -82.4604
rradius 22.3913
rwrist 33.5914
rhand -21.3913 -24.731
rfingers 7.12502
rthumb 4.99651 -54.6521
lclavicle -2.98177e-015 -2.38542e-015
lhumerus -15.6002 -5.34757 90.9165
lradius 15.9038
lwrist 3.95771
lhand -28.2925 -7.51923
lfingers 7.12502
lthumb -1.66837 22.454
rfemur -29.8606 -3.88565 20.531
rtibia 45.942
rfoot -20.4889 -10.0716
rtoes 5.22353
lfemur -31.36 6.79687 -17.6878
ltibia 43.236
lfoot -19.6897 0.758616
ltoes -4.7635
368
root 0.464676 16.9013 -2.67976 8.36435 0.391323 -1.51755
lowerback 5.18124 -0.877751 -0.756823
upperback 6.16515 -1.24442 2.4072
thorax 3.53449 -0.7108 2.9368
lowerneck -13.207 0.676784 -0.532494
upperneck 31.7316 1.45186 -1.08242
head 12.7483 0.428724 -0.113396
rclavicle -3.27995e-015 -1.23246e-014
rhumerus -19.0902 -15.1739 -82.4763
rradius 22.3689
rwrist 33.6095
rhand -21.3676 -24.7626
rfingers 7.12502
rthumb 5.01938 -54.6832
lclavicle -3.27995e-015 -1.23246e-014
lhumerus -15.592 -5.33838 90.9009
lradius 15.9707
lwrist 4.11223
lhand -28.3243 -7.55768
lfingers 7.12502
lthumb -1.69912 22.4153
rfemur -29.8409 -3.91079 20.5363
rtibia 45.9329
rfoot -20.4927 -10.065
rtoes 5.21646
lfemur -31.3485 6.7983 -17.6849
ltibia 43.2458
lfoot -19.6998 0.886403
ltoes -4.90041
369
root 0.467833 16.9009 -2.68037 8.35032 0.399593 -1.5226
lowerback 5.17222 -0.879117 -0.760485
upperback 6.17327 -1.24638 2.40176
thorax 3.5481 -0.711988 2.93307
lowerneck -13.2436 0.684574 -0.518168
upperneck 31.7789 1.46747 -1.10338
head 12.7763 0.43399 -0.121604
rclavicle 8.64713e-015 1.15295e-014
rhumerus -19.1125 -15.2004 -82.4951
rradius 22.3536
rwrist 33.6165
rhand -21.3487 -24.7869
rfingers 7.12502
rthumb 5.03771 -54.707
lclavicle 8.64713e-015 1.15295e-014
lhumerus -15.5788 -5.34745 90.8877
lradius 16.0295
lwrist 4.25148
lhand -28.3507 -7.58891
lfingers 7.12502
lthumb -1.72457 22.3839
rfemur -29.8251 -3.94075 20.5328
rtibia 45.93
rfoot -20.5001 -10.053
rtoes 5.20582
lfemur -31.3372 6.80152 -17.691
ltibia 43.2581
lfoot -19.7132 1.0194
ltoes -5.04551
370
root 0.471073 16.9003 -2.681 8.33769 0.402731 -1.52411
lowerback 5.16418 -0.879089 -0.766015
upperback 6.1781 -1.24642 2.39393
thorax 3.55759 -0.712163 2.92789
lowerneck -13.2783 0.691637 -0.50421
upperneck 31.8305 1.48021 -1.11837
head 12.8056 0.438682 -0.127893
rclavicle 3.8763e-015 -4.37326e-015
rhumerus -19.1422 -15.2109 -82.5166
rradius 22.3526
rwrist 33.6116
rhand -21.3325 -24.8067
rfingers 7.12502
rthumb 5.05326 -54.7265
lclavicle 3.8763e-015 -4.37326e-015
lhumerus -15.5627 -5.38493 90.8777
lradius 16.0821
lwrist 4.37765
lhand -28.3686 -7.60601
lfingers 7.12502
lthumb -1.74193 22.3666
rfemur -29.8146 -3.97228 20.5254
rtibia 45.9322
rfoot -20.5094 -10.0377
rtoes 5.1853
lfemur -31.3298 6.80813 -17.7013
ltibia 43.2747
lfoot -19.7288 1.14343
ltoes -5.17568
371
root 0.474295 16.8992 -2.68182 8.32752 0.402316 -1.53223
lowerback 5.15766 -0.877556 -0.76556
upperback 6.17877 -1.24428 2.38795
thorax 3.56162 -0.710966 2.92127
lowerneck -13.2923 0.696229 -0.501248
upperneck 31.8677 1.48697 -1.11845
head 12.8242 0.441595 -0.127449
rclavicle 1.53064e-014 2.50469e-014
rhumerus -19.1816 -15.2052 -82.5377
rradius 22.3665
rwrist 33.5974
rhand -21.3143 -24.8264
rfingers 7.12502
rthumb 5.07085 -54.7457
lclavicle 1.53064e-014 2.50469e-014
lhumerus -15.5449 -5.44694 90.8714
lradius 16.1306
lwrist 4.48659
lhand -28.3837 -7.62993
lfingers 7.12502
lthumb -1.75646 22.3426
rfemur -29.8106 -4.00006 20.5253
rtibia 45.939
rfoot -20.519 -10.0204
rtoes 5.16708
lfemur -31.3307 6.82129 -17.7045
ltibia 43.2981
lfoot -19.7461 1.24151
ltoes -5.27846
372
root 0.477607 16.8979 -2.68268 8.31801 0.397433 -1.54607
lowerback 5.14984 -0.874836 -0.759776
upperback 6.17994 -1.2405 2.38385
thorax 3.56674 -0.708799 2.91355
lowerneck -13.303 0.701283 -0.499188
upperneck 31.9 1.49425 -1.11771
head 12.84 0.444788 -0.126464
rclavicle -8.05078e-015 -3.97569e-015
rhumerus -19.2223 -15.1754 -82.5612
rradius 22.393
rwrist 33.5659
rhand -21.2948 -24.8515
rfingers 7.12502
rthumb 5.08974 -54.7704
lclavicle -8.05078e-015 -3.97569e-015
lhumerus -15.5179 -5.52855 90.868
lradius 16.1739
lwrist 4.57393
lhand -28.3933 -7.64656
lfingers 7.12502
lthumb -1.76578 22.3259
rfemur -29.8097 -4.02581 20.5311
rtibia 45.9486
rfoot -20.5283 -10.0011
rtoes 5.13102
lfemur -31.3368 6.84164 -17.7023
ltibia 43.3284
lfoot -19.7635 1.30546
ltoes -5.32959
373
root 0.480962 16.8964 -2.68356 8.30852 0.392223 -1.56469
lowerback 5.14104 -0.871506 -0.749245
upperback 6.18191 -1.23588 2.3823
thorax 3.57314 -0.706102 2.90577
lowerneck -13.2891 0.704561 -0.510324
upperneck 31.9058 1.49847 -1.10667
head 12.8393 0.446754 -0.119707
rclavicle -4.37326e-015 2.0276e-014
rhumerus -19.2617 -15.1346 -82.5829
rradius 22.4253
rwrist 33.5259
rhand -21.2746 -24.8741
rfingers 7.12502
rthumb 5.10921 -54.7925
lclavicle -4.37326e-015 2.0276e-014
lhumerus -15.4847 -5.62747 90.8703
lradius 16.2147
lwrist 4.6545
lhand -28.3739 -7.59815
lfingers 7.12502
lthumb -1.747 22.3744
rfemur -29.8101 -4.05132 20.5417
rtibia 45.9606
rfoot -20.5381 -9.97893
rtoes 5.09535
lfemur -31.3475 6.86659 -17.6957
ltibia 43.3641
lfoot -19.7792 1.33265
ltoes -5.33004
